<svg xmlns="http://www.w3.org/2000/svg" width="355" height="273" viewBox="0 0 355 273" fill="none"><metadata><rdf:RDF xmlns:rdf="http://www.w3.org/1999/02/22-rdf-syntax-ns#" xmlns:dc="http://purl.org/dc/elements/1.1/"><rdf:Description><dc:creator>RealFaviconGenerator</dc:creator><dc:source>https://realfavicongenerator.net</dc:source></rdf:Description></rdf:RDF></metadata><path d="M17.3438 247.618C17.9427 247.696 18.5807 247.892 19.2578 248.204C19.9349 248.517 20.5599 248.959 21.1328 249.532C21.7318 250.105 22.2266 250.808 22.6172 251.642C23.0078 252.449 23.2031 253.386 23.2031 254.454C23.2031 255.756 23.0078 256.876 22.6172 257.813C22.2266 258.751 21.7318 259.532 21.1328 260.157C20.5599 260.756 19.9219 261.238 19.2188 261.603C18.5417 261.941 17.8776 262.201 17.2266 262.384C16.6016 262.566 16.0417 262.683 15.5469 262.735C15.0521 262.761 14.7266 262.774 14.5703 262.774H10.0391V259.337H14.2969C15.6771 259.337 16.7578 258.894 17.5391 258.009C18.3203 257.123 18.7109 255.938 18.7109 254.454C18.7109 253.048 18.3073 251.863 17.5 250.899C16.6927 249.936 15.5078 249.454 13.9453 249.454H10.0391V246.29H11.9141C12.487 246.29 13.0729 246.277 13.6719 246.251C14.2708 246.225 14.8307 246.082 15.3516 245.821C15.8724 245.561 16.2891 245.118 16.6016 244.493C16.9401 243.868 17.1094 242.97 17.1094 241.798C17.1094 241.329 17.0443 240.847 16.9141 240.353C16.7839 239.832 16.5234 239.363 16.1328 238.946C15.7422 238.53 15.1823 238.191 14.4531 237.931C13.724 237.67 12.7604 237.54 11.5625 237.54H10.0391V233.985H12.0312C13.2552 233.985 14.4401 234.129 15.5859 234.415C16.7318 234.701 17.7474 235.157 18.6328 235.782C19.5182 236.407 20.2214 237.228 20.7422 238.243C21.263 239.233 21.5234 240.418 21.5234 241.798C21.5234 242.605 21.3932 243.347 21.1328 244.024C20.8724 244.675 20.5469 245.248 20.1562 245.743C19.7656 246.238 19.3099 246.655 18.7891 246.993C18.2943 247.306 17.8125 247.514 17.3438 247.618ZM3.75 233.985H8.4375V262.774H3.75V233.985ZM34.1797 247.774C34.1797 249.78 34.3099 251.485 34.5703 252.892C34.8307 254.272 35.2083 255.418 35.7031 256.329C36.1979 257.215 36.7839 257.879 37.4609 258.321C38.1641 258.764 38.9453 259.024 39.8047 259.103V262.97C38.2161 262.866 36.7708 262.488 35.4688 261.837C34.1927 261.16 33.112 260.209 32.2266 258.985C31.3411 257.735 30.651 256.212 30.1562 254.415C29.6615 252.618 29.4141 250.561 29.4141 248.243V233.985H34.1797V247.774ZM51.7969 233.985V248.243C51.7969 250.561 51.5495 252.618 51.0547 254.415C50.5599 256.212 49.8568 257.735 48.9453 258.985C48.0599 260.209 46.9792 261.16 45.7031 261.837C44.4271 262.488 42.9948 262.866 41.4062 262.97V259.103C42.2656 258.998 43.0339 258.738 43.7109 258.321C44.4141 257.879 45.013 257.215 45.5078 256.329C46.0026 255.444 46.3802 254.311 46.6406 252.931C46.9271 251.524 47.0703 249.806 47.0703 247.774V233.985H51.7969ZM74.6484 233.985H79.4141V262.774H74.6484L64.9609 245.743V236.759L74.6484 253.829V233.985ZM58.5938 262.774V233.985H63.3594V262.774H58.5938ZM86.7188 233.985H91.4062V262.774H86.7188V233.985ZM95.3906 233.985C97.8125 233.985 99.9349 234.376 101.758 235.157C103.607 235.912 105.13 236.928 106.328 238.204C107.552 239.48 108.464 240.938 109.062 242.579C109.661 244.194 109.961 245.86 109.961 247.579C109.961 249.949 109.701 251.98 109.18 253.673C108.685 255.34 108.047 256.746 107.266 257.892C106.484 259.011 105.599 259.897 104.609 260.548C103.646 261.199 102.708 261.694 101.797 262.032C100.885 262.345 100.052 262.553 99.2969 262.657C98.5417 262.735 97.9818 262.774 97.6172 262.774H93.0078V259.337H96.0547C99.2318 259.337 101.523 258.321 102.93 256.29C104.336 254.259 105.039 251.316 105.039 247.462C105.039 246.264 104.896 245.079 104.609 243.907C104.323 242.735 103.763 241.681 102.93 240.743C102.122 239.78 101.016 239.011 99.6094 238.438C98.2031 237.84 96.3802 237.54 94.1406 237.54H93.0078V233.985H95.3906ZM121.445 233.985V259.22H134.688V262.774H116.68V233.985H121.445ZM139.57 233.985H144.336V262.774H139.57V233.985ZM156.367 249.806H145.938V246.603H156.367V249.806ZM145.938 259.22H157.578V262.774H145.938V259.22ZM157.578 233.985V237.54H145.938V233.985H157.578ZM186.875 249.376V253.321H174.453V249.376H186.875Z" fill="#0E3C60"></path><path d="M204.609 233.985H209.375V262.774H204.609V233.985ZM221.406 249.806H210.977V246.603H221.406V249.806ZM210.977 259.22H222.617V262.774H210.977V259.22ZM222.617 233.985V237.54H210.977V233.985H222.617ZM227.773 233.985H233.125L239.18 256.563V262.931H236.719L227.773 233.985ZM246.875 233.985H252.188L242.812 262.931H240.781V255.313L246.875 233.985ZM258.164 233.985H262.93V262.774H258.164V233.985ZM274.961 249.806H264.531V246.603H274.961V249.806ZM264.531 259.22H276.172V262.774H264.531V259.22ZM276.172 233.985V237.54H264.531V233.985H276.172ZM298.633 233.985H303.398V262.774H298.633L288.945 245.743V236.759L298.633 253.829V233.985ZM282.578 262.774V233.985H287.344V262.774H282.578ZM330.859 233.985V237.188H322.266V262.774H317.539V237.188H308.945V233.985H330.859ZM349.688 238.438C349.557 238.386 349.401 238.295 349.219 238.165C349.036 238.035 348.776 237.918 348.438 237.813C348.099 237.683 347.669 237.579 347.148 237.501C346.628 237.423 345.964 237.41 345.156 237.462V233.517C346.302 233.543 347.461 233.673 348.633 233.907C349.831 234.116 350.794 234.454 351.523 234.923C351.367 235.261 351.185 235.639 350.977 236.056C350.768 236.446 350.573 236.824 350.391 237.188C350.208 237.527 350.052 237.813 349.922 238.048C349.792 238.282 349.714 238.412 349.688 238.438ZM336.211 241.563C336.211 240.418 336.406 239.389 336.797 238.478C337.188 237.566 337.708 236.772 338.359 236.095C339.036 235.392 339.818 234.845 340.703 234.454C341.615 234.037 342.565 233.764 343.555 233.634V237.735C342.721 238.022 342.031 238.53 341.484 239.259C340.938 239.962 340.664 240.678 340.664 241.407C340.664 242.423 340.938 243.243 341.484 243.868C342.031 244.493 342.721 245.04 343.555 245.509V249.962C342.695 249.545 341.836 249.103 340.977 248.634C340.117 248.139 339.336 247.566 338.633 246.915C337.93 246.264 337.344 245.509 336.875 244.649C336.432 243.79 336.211 242.761 336.211 241.563ZM336.836 257.501C337.201 257.709 337.656 257.918 338.203 258.126C338.776 258.308 339.362 258.491 339.961 258.673C340.56 258.829 341.159 258.959 341.758 259.063C342.357 259.168 342.917 259.22 343.438 259.22H343.555V262.931H343.477C342.852 262.931 342.201 262.892 341.523 262.813C340.872 262.761 340.208 262.657 339.531 262.501C338.854 262.345 338.203 262.136 337.578 261.876C336.979 261.59 336.458 261.251 336.016 260.86L336.836 257.501ZM345.156 246.29C346.016 246.681 346.888 247.097 347.773 247.54C348.685 247.983 349.505 248.53 350.234 249.181C350.964 249.806 351.562 250.574 352.031 251.485C352.5 252.397 352.734 253.53 352.734 254.884C352.734 255.821 352.552 256.733 352.188 257.618C351.849 258.504 351.354 259.311 350.703 260.04C350.078 260.743 349.297 261.342 348.359 261.837C347.422 262.332 346.354 262.657 345.156 262.813V259.063C347.292 258.543 348.359 257.123 348.359 254.806C348.359 253.894 348.06 253.139 347.461 252.54C346.862 251.941 346.094 251.381 345.156 250.86V246.29Z" fill="#F96C1A"></path><path d="M282 122.274C286.575 64.2679 183.5 1.77441 183.5 1.77441C183.5 1.77441 276.35 72.4076 264 122.274H282Z" fill="url(#paint0_linear_49_76)"></path><path d="M136 135.274V119.274C136 119.274 79.226 146.217 73.5 135.274C67.774 124.331 172 1.77441 172 1.77441C172 1.77441 58 113.274 58 140.274C58 167.274 136 135.274 136 135.274Z" fill="url(#paint1_linear_49_76)"></path><path d="M174.65 122.742L174.666 161.793L110.074 208.722L174.404 122.646C174.486 122.679 174.568 122.711 174.65 122.742ZM241.986 206.404L180.666 161.854L180.65 123.078C180.901 123.013 181.147 122.937 181.39 122.854L241.986 206.404ZM223.191 131.07L246.266 202.083L186.53 119.723L223.191 131.07ZM110.093 198.674L132.553 129.551L169.449 119.254L110.093 198.674ZM168.324 113.987C168.361 114.802 168.498 115.59 168.721 116.342L132.096 126.563L69.0859 80.7852L168.324 113.987ZM224.878 125.312L188.023 113.904C188.028 113.781 188.033 113.657 188.033 113.533C188.033 113.53 188.032 113.526 188.032 113.522L286.311 80.6797L224.878 125.312ZM169.277 107.98L71.4141 75.2383H146.27L169.277 107.98ZM283.664 75.2383L187.095 107.511L208.61 75.2383H283.664ZM174.645 104.325C174.487 104.386 174.331 104.45 174.178 104.519L151.275 71.9277L174.604 0.128906L174.645 104.325ZM203.854 71.5557L181.942 104.421C181.523 104.247 181.09 104.101 180.645 103.986L180.604 0L203.854 71.5557Z" fill="#0E3C60"></path><path d="M130.661 128.522L178.5 113.611" stroke="#F96C1A" stroke-width="6"></path><circle cx="178.173" cy="113.533" r="9.85995" fill="#F96C1A"></circle><path d="M120.5 194.774L110 208.774L133.5 191.774L120.5 194.774Z" fill="#F96C1A"></path><defs>
<linearGradient id="paint0_linear_49_76" x1="186" y1="2.11133" x2="263.5" y2="122.111" gradientUnits="userSpaceOnUse">
<stop offset="0.524038" stop-color="#F96C1A"></stop>
<stop offset="1" stop-color="#F96C1A" stop-opacity="0"></stop>
</linearGradient>
<linearGradient id="paint1_linear_49_76" x1="165" y1="9.61133" x2="109.5" y2="76.1113" gradientUnits="userSpaceOnUse">
<stop offset="0.0913462" stop-color="#F96C1A" stop-opacity="0"></stop>
<stop offset="1" stop-color="#F96C1A"></stop>
</linearGradient>
</defs></svg>